<?xml version="1.0" encoding="UTF-8"?>
<svg id="logo" xmlns="http://www.w3.org/2000/svg" version="1.1" viewBox="0 0 1020.02 262.93">
  <!-- Generator: Adobe Illustrator 29.8.2, SVG Export Plug-In . SVG Version: 2.1.1 Build 3)  -->
  <defs>
    <style>
      .st0 {
        fill: #231f20;
      }
    </style>
  </defs>
  <path class="st0" d="M57.8,88.69c-2.48,0-4.64-.92-6.47-2.75-1.84-1.83-2.75-3.99-2.75-6.47s.92-4.76,2.75-6.55c1.83-1.79,3.99-2.68,6.47-2.68s4.76.89,6.55,2.68,2.68,3.97,2.68,6.55-.89,4.64-2.68,6.47c-1.79,1.84-3.97,2.75-6.55,2.75ZM50.96,178.7v-72.75h13.99v72.75h-13.99Z"/>
  <path class="st0" d="M108.17,178.7h-13.99v-72.75h12.65l1.49,11.16c2.28-4.17,5.58-7.41,9.89-9.74,4.31-2.33,9.05-3.5,14.21-3.5,9.52,0,16.56,2.73,21.13,8.18,4.56,5.46,6.84,12.85,6.84,22.17v44.48h-13.99v-41.36c0-7.34-1.59-12.62-4.76-15.84-3.18-3.22-7.44-4.84-12.79-4.84-6.55,0-11.63,2.13-15.25,6.4-3.62,4.27-5.43,9.97-5.43,17.11v38.53Z"/>
  <path class="st0" d="M204.02,178.7h-13.99v-109.5h13.99v70.97l32.29-34.22h17.56l-27.82,29.01,27.67,43.74h-16.07l-21.28-33.62-12.35,12.94v20.68Z"/>
  <path class="st0" d="M293.82,180.49c-7.74,0-13.81-2.03-18.23-6.1-4.42-4.07-6.62-9.37-6.62-15.92s2.38-11.98,7.14-15.99,11.41-6.37,19.94-7.07l22.91-1.79v-2.08c0-4.07-.74-7.31-2.23-9.75-1.49-2.43-3.52-4.17-6.1-5.21-2.58-1.04-5.5-1.56-8.78-1.56-5.85,0-10.39,1.22-13.61,3.64-3.22,2.43-4.84,5.88-4.84,10.34h-12.2c0-5.06,1.29-9.47,3.87-13.24,2.58-3.77,6.22-6.69,10.93-8.78,4.71-2.08,10.19-3.12,16.44-3.12s11.33,1.07,15.84,3.2c4.51,2.13,8.03,5.36,10.56,9.67,2.53,4.31,3.79,9.74,3.79,16.29v45.67h-11.9l-1.49-11.75c-1.88,4.17-5.13,7.46-9.74,9.89-4.61,2.43-9.85,3.64-15.7,3.64ZM297.83,169.63c6.64,0,11.85-2.01,15.62-6.03,3.77-4.02,5.65-9.45,5.65-16.29v-3.87l-18.6,1.49c-6.15.59-10.59,2.03-13.32,4.31-2.73,2.28-4.09,5.21-4.09,8.78,0,3.87,1.31,6.77,3.94,8.7,2.63,1.93,6.22,2.9,10.79,2.9Z"/>
  <path class="st0" d="M383.6,211.28v-105.33h12.65l1.04,13.09c2.38-5.06,5.93-8.85,10.64-11.38,4.71-2.53,9.94-3.79,15.7-3.79,6.94,0,12.94,1.61,18,4.84,5.06,3.22,8.95,7.69,11.68,13.39,2.73,5.71,4.09,12.27,4.09,19.71s-1.32,14.09-3.94,19.94c-2.63,5.85-6.45,10.47-11.46,13.84-5.01,3.37-11.14,5.06-18.37,5.06-5.85,0-11.06-1.19-15.62-3.57-4.56-2.38-8.03-5.8-10.41-10.27v44.48h-13.99ZM397.73,142.4c0,4.86.92,9.25,2.75,13.17,1.83,3.92,4.46,6.97,7.89,9.15,3.42,2.18,7.51,3.27,12.27,3.27s8.83-1.12,12.2-3.35c3.37-2.23,5.97-5.28,7.81-9.15,1.83-3.87,2.75-8.23,2.75-13.09s-.92-9.52-2.75-13.39c-1.84-3.87-4.44-6.89-7.81-9.08-3.37-2.18-7.44-3.27-12.2-3.27s-8.85,1.09-12.27,3.27c-3.42,2.18-6.05,5.21-7.89,9.08-1.84,3.87-2.75,8.33-2.75,13.39Z"/>
  <path class="st0" d="M523.53,105.35v12.79h-6.25c-6.65,0-11.88,1.91-15.7,5.73-3.82,3.82-5.73,9.25-5.73,16.29v38.53h-13.99v-72.6h13.09l1.19,14.58h-1.34c.99-4.76,3.37-8.65,7.14-11.68,3.77-3.02,8.48-4.54,14.13-4.54,1.29,0,2.5.07,3.65.22,1.14.15,2.4.37,3.79.67Z"/>
  <path class="st0" d="M552.47,88.69c-2.48,0-4.64-.92-6.47-2.75-1.84-1.83-2.75-3.99-2.75-6.47s.92-4.76,2.75-6.55c1.83-1.79,3.99-2.68,6.47-2.68s4.76.89,6.55,2.68,2.68,3.97,2.68,6.55-.89,4.64-2.68,6.47c-1.79,1.84-3.97,2.75-6.55,2.75ZM545.63,178.7v-72.75h13.99v72.75h-13.99Z"/>
  <path class="st0" d="M594.66,179.59h-13.99v-72.75h12.65l1.49,11.16c2.28-4.17,5.58-7.41,9.89-9.74,4.31-2.33,9.05-3.5,14.21-3.5,9.52,0,16.56,2.73,21.13,8.18,4.56,5.46,6.84,12.85,6.84,22.17v44.48h-13.99v-41.36c0-7.34-1.59-12.62-4.76-15.84-3.18-3.22-7.44-4.84-12.79-4.84-6.55,0-11.63,2.13-15.25,6.4-3.62,4.27-5.43,9.97-5.43,17.11v38.53Z"/>
  <path class="st0" d="M661.6,106.47h42.55v11.75h-42.55v-11.75ZM689.87,179.22h-13.99v-95.52h13.99v95.52Z"/>
  <path class="st0" d="M733.55,142.4c0-7.64,1.51-14.33,4.54-20.08,3.02-5.75,7.22-10.27,12.57-13.54,5.36-3.27,11.55-4.91,18.6-4.91,9.12,0,16.71,2.43,22.76,7.29,6.05,4.86,9.67,11.31,10.86,19.34h-13.99c-1.19-4.66-3.52-8.18-6.99-10.56-3.47-2.38-7.54-3.57-12.2-3.57-4.37,0-8.23,1.07-11.6,3.2-3.37,2.13-6,5.13-7.88,9-1.89,3.87-2.83,8.43-2.83,13.69s.89,9.8,2.68,13.61c1.79,3.82,4.31,6.79,7.59,8.93,3.27,2.13,7.09,3.2,11.46,3.2,4.96,0,9.22-1.24,12.79-3.72,3.57-2.48,5.95-5.85,7.14-10.12h13.99c-.89,5.26-2.9,9.85-6.03,13.76-3.12,3.92-7.09,6.99-11.9,9.22-4.81,2.23-10.14,3.35-15.99,3.35-7.14,0-13.37-1.59-18.67-4.76-5.31-3.17-9.45-7.61-12.42-13.32-2.98-5.7-4.46-12.37-4.46-20.01Z"/>
  <path class="st0" d="M822,142.25c0-7.44,1.64-14.03,4.91-19.79,3.27-5.75,7.76-10.27,13.46-13.54,5.7-3.27,12.22-4.91,19.56-4.91s13.84,1.64,19.49,4.91c5.65,3.27,10.12,7.79,13.39,13.54,3.27,5.75,4.91,12.35,4.91,19.79s-1.64,14.04-4.91,19.79c-3.27,5.75-7.74,10.27-13.39,13.54-5.65,3.27-12.15,4.91-19.49,4.91s-13.86-1.64-19.56-4.91c-5.71-3.27-10.19-7.79-13.46-13.54-3.27-5.75-4.91-12.35-4.91-19.79ZM836.14,142.25c0,5.06,1.02,9.52,3.05,13.39,2.03,3.87,4.83,6.89,8.41,9.08,3.57,2.18,7.68,3.27,12.35,3.27s8.78-1.09,12.35-3.27c3.57-2.18,6.37-5.21,8.41-9.08,2.03-3.87,3.05-8.33,3.05-13.39s-1.02-9.64-3.05-13.46c-2.03-3.82-4.83-6.82-8.41-9-3.57-2.18-7.69-3.27-12.35-3.27s-8.78,1.09-12.35,3.27c-3.57,2.18-6.38,5.18-8.41,9-2.03,3.82-3.05,8.31-3.05,13.46Z"/>
  <path class="st0" d="M918.15,180.49c-2.88,0-5.38-1.02-7.51-3.05-2.13-2.03-3.2-4.49-3.2-7.36s1.06-5.48,3.2-7.51c2.13-2.03,4.63-3.05,7.51-3.05s5.36,1.02,7.44,3.05c2.08,2.03,3.12,4.54,3.12,7.51s-1.04,5.33-3.12,7.36c-2.08,2.03-4.56,3.05-7.44,3.05Z"/>
</svg>
