<?xml version="1.0" encoding="UTF-8"?>
<svg id="logo" xmlns="http://www.w3.org/2000/svg" version="1.1" viewBox="0 0 1020.02 262.93">
  <!-- Generator: Adobe Illustrator 29.8.2, SVG Export Plug-In . SVG Version: 2.1.1 Build 3)  -->
  <defs>
    <style>
      .st0 {
        fill: #231f20;
      }
    </style>
  </defs>
  <path class="st0" d="M400.02,215.91v-104.99h9.06l1.06,14.8c2.62-5.64,6.37-9.84,11.25-12.61,4.88-2.77,10.35-4.15,16.39-4.15,7.05,0,13.09,1.66,18.13,4.99,5.03,3.32,8.91,7.86,11.63,13.6,2.72,5.74,4.08,12.29,4.08,19.64s-1.34,13.95-4,19.79c-2.67,5.84-6.5,10.45-11.48,13.82s-11.1,5.06-18.35,5.06c-6.25,0-11.73-1.34-16.47-4-4.73-2.67-8.36-6.62-10.88-11.86v45.92h-10.42ZM410.59,147.48c0,5.54,1.01,10.5,3.02,14.88,2.01,4.38,4.91,7.83,8.69,10.35,3.78,2.52,8.33,3.78,13.67,3.78s9.87-1.26,13.6-3.78c3.72-2.52,6.57-5.97,8.54-10.35s2.95-9.34,2.95-14.88-.98-10.65-2.95-15.03-4.81-7.8-8.54-10.27c-3.73-2.47-8.26-3.7-13.6-3.7s-9.89,1.23-13.67,3.7c-3.78,2.47-6.67,5.89-8.69,10.27-2.02,4.38-3.02,9.39-3.02,15.03Z"/>
  <path class="st0" d="M539.47,112.01v9.37h-5.74c-6.75,0-12.11,2.07-16.09,6.19-3.98,4.13-5.97,9.72-5.97,16.77v41.69h-10.42v-73.12h9.82l.91,14.35h-1.06c1.01-4.73,3.47-8.58,7.4-11.56,3.93-2.97,8.71-4.46,14.35-4.46,1.11,0,2.21.05,3.32.15,1.11.1,2.27.3,3.47.6Z"/>
  <path class="st0" d="M558.5,92.83c-2.11,0-3.93-.75-5.44-2.27s-2.27-3.32-2.27-5.44.75-3.95,2.27-5.51c1.51-1.56,3.32-2.34,5.44-2.34s3.95.78,5.51,2.34c1.56,1.56,2.34,3.4,2.34,5.51s-.78,3.93-2.34,5.44c-1.56,1.51-3.4,2.27-5.51,2.27ZM553.37,186.03v-73.12h10.42v73.12h-10.42Z"/>
  <path class="st0" d="M602.97,186.03h-10.42v-73.12h9.06l1.51,12.69c2.42-4.63,5.87-8.23,10.35-10.8,4.48-2.57,9.39-3.85,14.73-3.85,10.07,0,17.32,2.77,21.75,8.31,4.43,5.54,6.65,12.89,6.65,22.06v44.72h-10.42v-42.45c0-8.56-1.79-14.55-5.36-17.98-3.58-3.42-8.38-5.14-14.43-5.14-7.45,0-13.22,2.49-17.3,7.48-4.08,4.99-6.12,11.61-6.12,19.87v38.22Z"/>
  <path class="st0" d="M670.29,112.92h39.58v8.76h-39.58v-8.76ZM695.22,186.03h-10.27v-96.23h10.27v96.23Z"/>
  <path class="st0" d="M79.28,118.24v68.01h9.7v-68.01h-9.7ZM89.19,87.26c-1.45-1.45-3.16-2.18-5.13-2.18s-3.65.73-5.06,2.18c-1.4,1.45-2.11,3.16-2.11,5.13s.71,3.65,2.11,5.06c1.41,1.4,3.1,2.1,5.06,2.1s3.68-.7,5.13-2.1c1.45-1.41,2.18-3.1,2.18-5.06s-.73-3.68-2.18-5.13Z"/>
  <path class="st0" d="M171.74,124.14c-4.12-5.15-10.87-7.72-20.23-7.72-4.97,0-9.54,1.19-13.7,3.58-4.17,2.39-7.38,5.74-9.63,10.05l-1.4-11.81h-8.43v68.01h9.69v-35.55c0-7.68,1.9-13.84,5.69-18.48,3.8-4.63,9.16-6.95,16.09-6.95,5.62,0,10.09,1.59,13.42,4.78,3.32,3.18,4.99,8.76,4.99,16.72v39.48h9.69v-41.59c0-8.52-2.06-15.36-6.18-20.52Z"/>
  <path class="st0" d="M236.38,145.36l26.13-27.12h-12.22l-33.73,35.13v-69.55h-9.69v102.43h9.69v-20.37l13.21-13.63,21.64,34h11.24l-26.27-40.89Z"/>
  <path class="st0" d="M332.44,125.92c-2.39-3.8-5.6-6.61-9.63-8.43-4.03-1.83-8.71-2.74-14.05-2.74s-10.4.93-14.61,2.81c-4.22,1.87-7.5,4.49-9.84,7.86-2.34,3.38-3.51,7.36-3.51,11.95h8.85c0-4.59,1.64-8.15,4.92-10.68,3.28-2.53,7.91-3.79,13.91-3.79,3.37,0,6.42.51,9.13,1.54,2.72,1.03,4.88,2.84,6.47,5.41,1.59,2.58,2.39,6.11,2.39,10.61v2.25l-22.49,1.83c-7.96.65-14.19,2.85-18.69,6.6-4.49,3.75-6.74,8.76-6.74,15.03,0,5.91,2.04,10.73,6.11,14.48,4.08,3.75,9.72,5.62,16.93,5.62,5.72,0,10.8-1.2,15.25-3.59,4.45-2.38,7.71-5.73,9.77-10.04l1.26,11.94h8.15v-43.98c0-5.99-1.19-10.89-3.58-14.68ZM326.47,153.67c0,7.31-1.97,13.25-5.91,17.84-3.93,4.6-9.5,6.89-16.72,6.89-4.68,0-8.43-1.06-11.24-3.16-2.81-2.11-4.21-5.22-4.21-9.35,0-3.74,1.4-6.93,4.21-9.55,2.81-2.62,7.4-4.22,13.77-4.78l20.1-1.54v3.65Z"/>
  <path class="st0" d="M752.73,148.54c0-7.65,1.49-14.38,4.46-20.17,2.97-5.79,7.1-10.32,12.39-13.6,5.29-3.27,11.46-4.91,18.51-4.91,8.46,0,15.58,2.27,21.38,6.8,5.79,4.53,9.39,10.58,10.8,18.13h-10.42c-1.41-5.03-4.08-8.91-8.01-11.63-3.93-2.72-8.46-4.08-13.6-4.08-4.83,0-9.17,1.21-12.99,3.63-3.83,2.42-6.82,5.82-8.99,10.2-2.17,4.38-3.25,9.54-3.25,15.48s1.01,10.93,3.02,15.26c2.01,4.33,4.86,7.71,8.54,10.12,3.68,2.42,7.98,3.62,12.92,3.62,5.54,0,10.32-1.38,14.35-4.15,4.03-2.77,6.75-6.52,8.16-11.25h10.58c-1.11,4.94-3.22,9.27-6.34,12.99-3.12,3.73-6.98,6.62-11.56,8.69-4.58,2.06-9.64,3.1-15.18,3.1-6.95,0-13.02-1.59-18.2-4.76-5.19-3.17-9.24-7.63-12.16-13.37-2.92-5.74-4.38-12.44-4.38-20.09Z"/>
  <path class="st0" d="M838.29,148.39c0-7.55,1.61-14.2,4.83-19.94,3.22-5.74,7.65-10.27,13.29-13.6,5.64-3.32,11.98-4.99,19.03-4.99s13.52,1.66,19.11,4.99c5.59,3.32,9.99,7.86,13.22,13.6,3.22,5.74,4.83,12.39,4.83,19.94s-1.61,13.92-4.83,19.71c-3.22,5.79-7.63,10.35-13.22,13.67-5.59,3.32-11.96,4.99-19.11,4.99s-13.39-1.66-19.03-4.99c-5.64-3.32-10.07-7.88-13.29-13.67-3.22-5.79-4.83-12.36-4.83-19.71ZM848.86,148.24c0,5.74,1.13,10.8,3.4,15.18,2.27,4.38,5.39,7.81,9.37,10.27,3.98,2.47,8.58,3.7,13.82,3.7s9.84-1.23,13.82-3.7c3.98-2.47,7.1-5.89,9.37-10.27,2.27-4.38,3.4-9.44,3.4-15.18s-1.13-10.62-3.4-14.96c-2.27-4.33-5.39-7.75-9.37-10.27-3.98-2.52-8.59-3.78-13.82-3.78s-9.84,1.26-13.82,3.78c-3.98,2.52-7.1,5.94-9.37,10.27-2.27,4.33-3.4,9.32-3.4,14.96Z"/>
  <path class="st0" d="M933.61,186.61c-2.52,0-4.74-.91-6.65-2.72-1.91-1.81-2.87-3.98-2.87-6.5s.96-4.86,2.87-6.72c1.91-1.86,4.13-2.79,6.65-2.79s4.86.93,6.72,2.79c1.86,1.86,2.79,4.1,2.79,6.72s-.93,4.68-2.79,6.5c-1.86,1.81-4.1,2.72-6.72,2.72Z"/>
</svg>
